<?xml version="1.0" encoding="UTF-8" standalone="no"?>
<!DOCTYPE svg PUBLIC "-//W3C//DTD SVG 1.1//EN" "http://www.w3.org/Graphics/SVG/1.1/DTD/svg11.dtd">
<svg width="100%" height="100%" viewBox="0 0 1920 1080" version="1.1" xmlns="http://www.w3.org/2000/svg" xmlns:xlink="http://www.w3.org/1999/xlink" xml:space="preserve" xmlns:serif="http://www.serif.com/" style="fill-rule:evenodd;clip-rule:evenodd;stroke-linejoin:round;stroke-miterlimit:2;">
    <rect id="Artboard1" x="0" y="0" width="1920" height="1080" style="fill:none;"/>
    <clipPath id="_clip1">
        <rect id="Artboard11" serif:id="Artboard1" x="0" y="0" width="1920" height="1080"/>
    </clipPath>
    <g clip-path="url(#_clip1)">
        <g transform="matrix(2.16979,0,0,2.18301,-472.874,-574.472)">
            <g transform="matrix(1.19636,0,0,1.19636,-59.603,-86.1178)">
                <path d="M301.271,438.571C289.859,438.571 279.891,436.165 271.366,431.353C262.841,426.541 256.276,419.763 251.67,411.021C247.064,402.279 244.761,392.133 244.761,380.584C244.761,366.307 247.648,353.474 253.423,342.085C259.198,330.696 267.241,321.713 277.553,315.137C287.865,308.56 299.483,305.272 312.408,305.272C324.232,305.272 334.441,308.119 343.035,313.813C351.628,319.508 358.056,327.568 362.318,337.995L335.094,353.875C330.282,342.166 322.032,336.311 310.345,336.311C304.021,336.311 298.349,338.115 293.331,341.724C288.312,345.334 284.394,350.346 281.575,356.763C278.756,363.179 277.347,370.478 277.347,378.659C277.347,387.481 279.616,394.499 284.153,399.712C288.69,404.926 295.015,407.532 303.127,407.532C314.951,407.532 324.026,401.758 330.351,390.208L354.068,407.532C348.706,417.317 341.385,424.937 332.104,430.391C322.823,435.844 312.545,438.571 301.271,438.571Z" style="fill:rgb(254,255,254);fill-rule:nonzero;"/>
                <path d="M329.288,372.801L371.542,403.664L365.909,413.943C359.338,425.933 350.338,435.243 338.966,441.927C327.616,448.596 315.059,451.973 301.271,451.973C287.305,451.973 275.139,448.895 264.707,443.006C253.899,436.905 245.565,428.322 239.726,417.238C234.175,406.702 231.278,394.502 231.278,380.584C231.278,364.064 234.701,349.233 241.383,336.054C248.288,322.435 257.94,311.722 270.272,303.858C282.743,295.904 296.777,291.87 312.408,291.87C327.137,291.87 339.81,295.57 350.514,302.663C361.302,309.812 369.459,319.861 374.809,332.95L379.198,343.687L329.288,372.801ZM301.271,438.571C312.545,438.571 322.823,435.844 332.104,430.391C341.385,424.937 348.706,417.317 354.068,407.532L330.351,390.208C324.026,401.758 314.951,407.532 303.127,407.532C295.015,407.532 288.69,404.926 284.153,399.712C279.616,394.499 277.347,387.481 277.347,378.659C277.347,370.478 278.756,363.179 281.575,356.763C284.394,350.346 288.312,345.334 293.331,341.724C298.349,338.115 304.021,336.311 310.345,336.311C322.032,336.311 330.282,342.166 335.094,353.875L362.318,337.995C358.056,327.568 351.628,319.508 343.035,313.813C334.441,308.119 324.232,305.272 312.408,305.272C299.483,305.272 287.865,308.56 277.553,315.137C267.241,321.713 259.198,330.696 253.423,342.085C247.648,353.474 244.761,366.307 244.761,380.584C244.761,392.133 247.064,402.279 251.67,411.021C256.276,419.763 262.841,426.541 271.366,431.353C279.891,436.165 289.859,438.571 301.271,438.571ZM327.887,371.777L322.612,358.943C320.178,353.019 316.258,349.712 310.345,349.712C306.962,349.712 303.919,350.651 301.234,352.582C298.075,354.854 295.706,358.086 293.932,362.125C291.805,366.965 290.83,372.488 290.83,378.659C290.83,383.755 291.729,387.933 294.35,390.945C296.414,393.316 299.437,394.131 303.127,394.131C309.917,394.131 314.876,390.434 318.508,383.801L325.891,370.32L327.887,371.777Z"/>
            </g>
            <path d="M411.641,327.641C416.453,321.545 422.262,317.134 429.068,314.407C435.874,311.68 443.883,310.316 453.095,310.316L447.32,344.965C443.471,344.644 440.996,344.483 439.896,344.483C430.134,344.483 422.331,347.291 416.487,352.905C410.644,358.519 406.691,367.262 404.629,379.132L393.904,441.691L361.731,441.691L383.798,312.241L414.322,312.241L411.641,327.641Z" style="fill:rgb(254,255,254);fill-rule:nonzero;"/>
            <path d="M433.463,296.326C439.431,294.985 445.971,294.283 453.095,294.283L472.118,294.283L460.802,362.177L445.973,360.942C442.821,360.679 440.796,360.516 439.896,360.516C434.869,360.516 430.707,361.542 427.698,364.433C423.874,368.107 421.877,374.079 420.527,381.846L407.519,457.724L342.637,457.724L370.171,296.208L433.484,296.208L433.463,296.326ZM411.641,327.641L414.322,312.241L383.798,312.241L361.731,441.691L393.904,441.691L404.629,379.132C406.691,367.262 410.644,358.519 416.487,352.905C422.331,347.291 430.134,344.483 439.896,344.483C440.996,344.483 443.471,344.644 447.32,344.965L453.095,310.316C443.883,310.316 435.874,311.68 429.068,314.407C422.262,317.134 416.453,321.545 411.641,327.641Z"/>
            <path d="M623.166,443.616C613.541,443.616 604.432,442.373 595.839,439.887C587.246,437.4 580.543,434.152 575.731,430.142L588.105,402.953C592.917,406.642 598.795,409.61 605.739,411.855C612.682,414.101 619.66,415.224 626.672,415.224C633.959,415.224 639.39,414.141 642.965,411.976C646.54,409.81 648.327,406.722 648.327,402.712C648.327,399.504 646.746,397.178 643.584,395.734C640.421,394.29 635.334,392.767 628.322,391.162C620.347,389.398 613.782,387.473 608.626,385.388C603.47,383.302 599.001,379.894 595.22,375.162C591.439,370.43 589.549,363.973 589.549,355.792C589.549,341.516 594.67,330.367 604.914,322.347C615.157,314.327 628.597,310.316 645.234,310.316C652.933,310.316 660.427,311.279 667.714,313.204C675.001,315.129 681.188,317.775 686.275,321.144L674.726,348.574C665.651,341.997 654.721,338.709 641.934,338.709C634.922,338.709 629.594,339.912 625.95,342.318C622.307,344.724 620.485,347.772 620.485,351.461C620.485,354.83 622.066,357.276 625.228,358.8C628.391,360.324 633.684,361.968 641.109,363.733C648.946,365.497 655.374,367.382 660.392,369.387C665.411,371.392 669.776,374.721 673.489,379.372C677.201,384.024 679.057,390.36 679.057,398.381C679.057,412.818 673.867,423.966 663.486,431.826C653.105,439.686 639.665,443.616 623.166,443.616Z" style="fill:rgb(254,255,254);fill-rule:nonzero;"/>
            <path d="M580.104,381.634C575.862,374.886 573.418,366.337 573.418,355.792C573.418,336.081 580.789,320.826 594.932,309.753C607.744,299.721 624.425,294.283 645.234,294.283C654.353,294.283 663.226,295.429 671.857,297.709C681.043,300.135 688.806,303.555 695.219,307.801L706.292,315.133L684.337,367.278C684.945,367.966 685.541,368.676 686.126,369.409C691.815,376.538 695.188,386.09 695.188,398.381C695.188,418.392 687.65,433.685 673.261,444.58C660.334,454.368 643.713,459.649 623.166,459.649C611.952,459.649 601.343,458.178 591.331,455.281C580.189,452.057 571.606,447.627 565.367,442.428L555.991,434.614L580.104,381.634ZM623.166,443.616C639.665,443.616 653.105,439.686 663.486,431.826C673.867,423.966 679.057,412.818 679.057,398.381C679.057,390.36 677.201,384.024 673.489,379.372C669.776,374.721 665.411,371.392 660.392,369.387C655.374,367.382 648.946,365.497 641.109,363.733C633.684,361.968 628.391,360.324 625.228,358.8C622.066,357.276 620.485,354.83 620.485,351.461C620.485,347.772 622.307,344.724 625.95,342.318C629.594,339.912 634.922,338.709 641.934,338.709C654.721,338.709 665.651,341.997 674.726,348.574L686.275,321.144C681.188,317.775 675.001,315.129 667.714,313.204C660.427,311.279 652.933,310.316 645.234,310.316C628.597,310.316 615.157,314.327 604.914,322.347C594.67,330.367 589.549,341.516 589.549,355.792C589.549,363.973 591.439,370.43 595.22,375.162C599.001,379.894 603.47,383.302 608.626,385.388C613.782,387.473 620.347,389.398 628.322,391.162C635.334,392.767 640.421,394.29 643.584,395.734C646.746,397.178 648.327,399.504 648.327,402.712C648.327,406.722 646.54,409.81 642.965,411.976C639.39,414.141 633.959,415.224 626.672,415.224C619.66,415.224 612.682,414.101 605.739,411.855C598.795,409.61 592.917,406.642 588.105,402.953L575.731,430.142C580.543,434.152 587.246,437.4 595.839,439.887C604.432,442.373 613.541,443.616 623.166,443.616Z"/>
            <path d="M579.237,312.241L557.169,441.691L526.646,441.691L528.708,428.939C519.496,438.724 508.153,443.616 494.678,443.616C486.016,443.616 478.042,441.29 470.754,436.638C463.467,431.987 457.658,425.29 453.327,416.547C448.996,407.805 446.831,397.499 446.831,385.628C446.831,371.352 449.546,358.479 454.977,347.01C460.408,335.541 467.798,326.558 477.148,320.061C486.497,313.565 496.809,310.316 508.084,310.316C525.133,310.316 537.164,316.813 544.176,329.806L547.063,312.241L579.237,312.241ZM504.578,412.577C510.903,412.577 516.54,410.773 521.49,407.163C526.439,403.554 530.289,398.541 533.039,392.125C535.789,385.709 537.164,378.33 537.164,369.988C537.164,361.166 534.93,354.188 530.461,349.055C525.992,343.922 519.771,341.355 511.796,341.355C505.472,341.355 499.834,343.16 494.885,346.769C489.935,350.378 486.085,355.391 483.335,361.808C480.585,368.224 479.21,375.603 479.21,383.944C479.21,392.767 481.445,399.744 485.913,404.877C490.382,410.011 496.603,412.577 504.578,412.577Z" style="fill:rgb(254,255,254);fill-rule:nonzero;"/>
            <path d="M532.941,298.724L533.354,296.208L598.33,296.208L570.796,457.724L510.826,457.724C505.723,459.008 500.34,459.649 494.678,459.649C482.86,459.649 471.98,456.476 462.037,450.129C452.391,443.971 444.589,435.202 438.856,423.63C433.528,412.875 430.7,400.231 430.7,385.628C430.7,368.821 433.988,353.685 440.382,340.182C447.101,325.993 456.339,314.958 467.906,306.921C480.047,298.485 493.443,294.283 508.084,294.283C517.498,294.283 525.77,295.788 532.941,298.724ZM579.237,312.241L547.063,312.241L544.176,329.806C537.164,316.813 525.133,310.316 508.084,310.316C496.809,310.316 486.497,313.565 477.148,320.061C467.798,326.558 460.408,335.541 454.977,347.01C449.546,358.479 446.831,371.352 446.831,385.628C446.831,397.499 448.996,407.805 453.327,416.547C457.658,425.29 463.467,431.987 470.754,436.638C478.042,441.29 486.016,443.616 494.678,443.616C508.153,443.616 519.496,438.724 528.708,428.939L526.646,441.691L557.169,441.691L579.237,312.241ZM504.578,412.577C496.603,412.577 490.382,410.011 485.913,404.877C481.445,399.744 479.21,392.767 479.21,383.944C479.21,375.603 480.585,368.224 483.335,361.808C486.085,355.391 489.935,350.378 494.885,346.769C499.834,343.16 505.472,341.355 511.796,341.355C519.771,341.355 525.992,343.922 530.461,349.055C534.93,354.188 537.164,361.166 537.164,369.988C537.164,378.33 535.789,385.709 533.039,392.125C530.289,398.541 526.439,403.554 521.49,407.163C516.54,410.773 510.903,412.577 504.578,412.577ZM504.578,396.544C507.329,396.544 509.795,395.806 511.948,394.236C514.68,392.244 516.681,389.383 518.199,385.842C520.165,381.253 521.033,375.954 521.033,369.988C521.033,365.651 520.46,362.069 518.263,359.546C516.754,357.813 514.488,357.388 511.796,357.388C509.045,357.388 506.579,358.127 504.426,359.697C501.694,361.689 499.693,364.549 498.175,368.091C496.209,372.68 495.341,377.978 495.341,383.944C495.341,388.281 495.915,391.863 498.111,394.387C499.62,396.119 501.886,396.544 504.578,396.544Z"/>
            <path d="M774.753,310.316C787.127,310.316 796.958,314.166 804.245,321.866C811.532,329.565 815.176,340.473 815.176,354.589C815.176,359.722 814.694,364.855 813.732,369.988L801.358,441.691L769.184,441.691L781.146,372.395C781.696,369.668 781.971,366.7 781.971,363.492C781.971,356.755 780.39,351.622 777.227,348.093C774.065,344.564 769.322,342.799 762.997,342.799C754.747,342.799 747.907,345.566 742.476,351.1C737.045,356.634 733.367,364.936 731.442,376.004L720.305,441.691L688.132,441.691L716.18,279.097L748.353,279.097L740.517,324.031C750.004,314.888 761.416,310.316 774.753,310.316Z" style="fill:rgb(254,255,254);fill-rule:nonzero;"/>
            <path d="M765.44,359.108C764.945,359.02 763.794,358.832 762.997,358.832C759.412,358.832 756.383,359.891 754.023,362.295C750.489,365.897 748.597,371.507 747.342,378.705L733.945,457.724L669,457.724L702.58,263.064L767.521,263.064C767.521,263.064 761.874,295.439 761.875,295.439C766.005,294.669 770.298,294.283 774.753,294.283C792.122,294.283 805.765,300.073 815.994,310.88C825.776,321.216 831.306,335.641 831.306,354.589C831.306,360.662 830.743,366.734 829.612,372.807L814.957,457.724L750.05,457.724L765.286,369.463L765.33,369.243C765.685,367.482 765.84,365.564 765.84,363.492C765.84,361.703 766.065,360.163 765.44,359.108ZM774.753,310.316C761.416,310.316 750.004,314.888 740.517,324.031L748.353,279.097L716.18,279.097L688.132,441.691L720.305,441.691L731.442,376.004C733.367,364.936 737.045,356.634 742.476,351.1C747.907,345.566 754.747,342.799 762.997,342.799C769.322,342.799 774.065,344.564 777.227,348.093C780.39,351.622 781.971,356.755 781.971,363.492C781.971,366.7 781.696,369.668 781.146,372.395L769.184,441.691L801.358,441.691L813.732,369.988C814.694,364.855 815.176,359.722 815.176,354.589C815.176,340.473 811.532,329.565 804.245,321.866C796.958,314.166 787.127,310.316 774.753,310.316Z"/>
            <g transform="matrix(1.19636,0,0,1.19636,-59.8521,-129.293)">
                <path d="M302.54,658.45C291.128,658.45 281.159,656.044 272.635,651.231C264.11,646.419 257.545,639.642 252.939,630.9C248.333,622.157 246.03,612.011 246.03,600.462C246.03,586.186 248.917,573.353 254.692,561.964C260.467,550.575 268.51,541.592 278.822,535.015C289.134,528.438 300.752,525.15 313.677,525.15C325.501,525.15 335.71,527.997 344.303,533.692C352.897,539.386 359.325,547.447 363.587,557.873L336.363,573.754C331.551,562.044 323.301,556.189 311.614,556.189C305.29,556.189 299.618,557.994 294.599,561.603C289.581,565.212 285.662,570.225 282.844,576.641C280.025,583.058 278.616,590.356 278.616,598.537C278.616,607.36 280.885,614.377 285.422,619.591C289.959,624.804 296.284,627.411 304.396,627.411C316.22,627.411 325.295,621.636 331.62,610.086L355.337,627.411C349.975,637.196 342.653,644.815 333.373,650.269C324.092,655.723 313.814,658.45 302.54,658.45Z" style="fill:rgb(254,255,254);fill-rule:nonzero;"/>
                <path d="M330.557,592.68L372.81,623.543L367.178,633.821C360.607,645.811 351.607,655.122 340.235,661.805C328.885,668.475 316.328,671.851 302.54,671.851C288.574,671.851 276.408,668.774 265.976,662.884C255.168,656.783 246.834,648.201 240.995,637.117C235.444,626.581 232.547,614.381 232.547,600.462C232.547,583.942 235.969,569.111 242.652,555.932C249.557,542.313 259.209,531.601 271.541,523.736C284.012,515.782 298.046,511.748 313.677,511.748C328.406,511.748 341.079,515.448 351.783,522.541C362.571,529.69 370.727,539.74 376.078,552.829L380.467,563.565L330.557,592.68ZM329.155,591.656L323.881,578.821C321.446,572.897 317.527,569.59 311.614,569.59C308.231,569.59 305.188,570.529 302.503,572.46C299.344,574.733 296.975,577.964 295.2,582.004C293.074,586.844 292.099,592.366 292.099,598.537C292.099,603.634 292.998,607.811 295.619,610.823C297.683,613.195 300.706,614.009 304.396,614.009C311.186,614.009 316.145,610.312 319.777,603.68L327.16,590.198L329.155,591.656ZM302.54,658.45C313.814,658.45 324.092,655.723 333.373,650.269C342.653,644.815 349.975,637.196 355.337,627.411L331.62,610.086C325.295,621.636 316.22,627.411 304.396,627.411C296.284,627.411 289.959,624.804 285.422,619.591C280.885,614.377 278.616,607.36 278.616,598.537C278.616,590.356 280.025,583.058 282.844,576.641C285.662,570.225 289.581,565.212 294.599,561.603C299.618,557.994 305.29,556.189 311.614,556.189C323.301,556.189 331.551,562.044 336.363,573.754L363.587,557.873C359.325,547.447 352.897,539.386 344.303,533.692C335.71,527.997 325.501,525.15 313.677,525.15C300.752,525.15 289.134,528.438 278.822,535.015C268.51,541.592 260.467,550.575 254.692,561.964C248.917,573.353 246.03,586.186 246.03,600.462C246.03,612.011 248.333,622.157 252.939,630.9C257.545,639.642 264.11,646.419 272.635,651.231C281.159,656.044 291.128,658.45 302.54,658.45Z"/>
            </g>
            <path d="M418.18,658.45C407.043,658.45 397.247,656.044 388.791,651.231C380.335,646.419 373.804,639.642 369.198,630.9C364.592,622.157 362.289,612.011 362.289,600.462C362.289,586.186 365.177,573.353 370.951,561.964C376.726,550.575 384.701,541.592 394.875,535.015C405.05,528.438 416.53,525.15 429.317,525.15C440.592,525.15 450.423,527.556 458.81,532.368C467.197,537.181 473.693,543.958 478.299,552.7C482.905,561.442 485.208,571.588 485.208,583.138C485.208,597.414 482.355,610.247 476.649,621.636C470.943,633.025 462.969,642.008 452.726,648.585C442.482,655.161 430.967,658.45 418.18,658.45ZM420.243,627.411C426.43,627.411 431.998,625.606 436.948,621.997C441.898,618.388 445.748,613.375 448.498,606.959C451.248,600.542 452.622,593.163 452.622,584.822C452.622,576 450.423,569.022 446.023,563.889C441.623,558.756 435.436,556.189 427.461,556.189C421.136,556.189 415.499,557.994 410.549,561.603C405.6,565.212 401.75,570.225 399,576.641C396.25,583.058 394.875,590.436 394.875,598.778C394.875,607.6 397.109,614.578 401.578,619.711C406.047,624.844 412.268,627.411 420.243,627.411Z" style="fill:rgb(254,255,254);fill-rule:nonzero;"/>
            <path d="M418.18,674.483C403.993,674.483 391.548,671.276 380.776,665.145C369.62,658.796 360.985,649.872 354.908,638.337C349.172,627.449 346.159,614.846 346.159,600.462C346.159,583.502 349.686,568.278 356.547,554.748C363.664,540.711 373.541,529.681 386.081,521.574C398.859,513.315 413.258,509.117 429.317,509.117C443.69,509.117 456.182,512.348 466.874,518.483C477.93,524.826 486.517,533.738 492.589,545.262C498.326,556.15 501.339,568.754 501.339,583.138C501.339,600.072 497.857,615.273 491.089,628.783C484.037,642.859 474.138,653.924 461.478,662.052C448.634,670.299 434.214,674.483 418.18,674.483ZM418.18,658.45C430.967,658.45 442.482,655.161 452.726,648.585C462.969,642.008 470.943,633.025 476.649,621.636C482.355,610.247 485.208,597.414 485.208,583.138C485.208,571.588 482.905,561.442 478.299,552.7C473.693,543.958 467.197,537.181 458.81,532.368C450.423,527.556 440.592,525.15 429.317,525.15C416.53,525.15 405.05,528.438 394.875,535.015C384.701,541.592 376.726,550.575 370.951,561.964C365.177,573.353 362.289,586.186 362.289,600.462C362.289,612.011 364.592,622.157 369.198,630.9C373.804,639.642 380.335,646.419 388.791,651.231C397.247,656.044 407.043,658.45 418.18,658.45ZM420.243,627.411C412.268,627.411 406.047,624.844 401.578,619.711C397.109,614.578 394.875,607.6 394.875,598.778C394.875,590.436 396.25,583.058 399,576.641C401.75,570.225 405.6,565.212 410.549,561.603C415.499,557.994 421.136,556.189 427.461,556.189C435.436,556.189 441.623,558.756 446.023,563.889C450.423,569.022 452.622,576 452.622,584.822C452.622,593.163 451.248,600.542 448.498,606.959C445.748,613.375 441.898,618.388 436.948,621.997C431.998,625.606 426.43,627.411 420.243,627.411ZM420.243,611.378C422.895,611.378 425.285,610.616 427.407,609.07C430.139,607.077 432.139,604.217 433.657,600.675C435.624,596.086 436.492,590.788 436.492,584.822C436.492,580.445 435.927,576.833 433.744,574.286C432.297,572.597 430.085,572.222 427.461,572.222C424.71,572.222 422.244,572.96 420.091,574.53C417.359,576.522 415.358,579.383 413.84,582.925C411.874,587.514 411.006,592.812 411.006,598.778C411.006,603.115 411.579,606.697 413.776,609.22C415.285,610.953 417.551,611.378 420.243,611.378Z"/>
            <path d="M624.833,527.075L602.765,656.525L572.242,656.525L574.51,642.569C569.698,647.863 564.198,651.833 558.011,654.48C551.824,657.126 545.293,658.45 538.418,658.45C526.319,658.45 516.66,654.6 509.442,646.9C502.223,639.201 498.614,628.373 498.614,614.418C498.614,609.124 499.095,603.911 500.058,598.778L512.226,527.075L544.399,527.075L532.644,596.372C532.094,599.419 531.819,602.547 531.819,605.755C531.819,619.23 538.006,625.967 550.38,625.967C558.492,625.967 565.195,623.2 570.489,617.666C575.782,612.132 579.391,603.831 581.316,592.762L592.66,527.075L624.833,527.075Z" style="fill:rgb(254,255,254);fill-rule:nonzero;"/>
            <path d="M548.443,609.747C548.999,609.832 549.79,609.934 550.38,609.934C553.754,609.934 556.597,608.92 558.798,606.619C562.279,602.979 564.154,597.316 565.42,590.038L579.062,511.042L643.927,511.042L616.393,672.558L554.416,672.558C549.249,673.839 543.917,674.483 538.418,674.483C521.333,674.483 507.834,668.703 497.64,657.83C487.947,647.491 482.483,633.158 482.483,614.418C482.483,608.178 483.048,602.033 484.174,595.981L498.588,511.042L563.478,511.042L548.536,599.12L548.521,599.202C548.137,601.33 547.949,603.515 547.949,605.755C547.949,607.062 548.261,608.83 548.443,609.747ZM624.833,527.075L592.66,527.075L581.316,592.762C579.391,603.831 575.782,612.132 570.489,617.666C565.195,623.2 558.492,625.967 550.38,625.967C538.006,625.967 531.819,619.23 531.819,605.755C531.819,602.547 532.094,599.419 532.644,596.372L544.399,527.075L512.226,527.075L500.058,598.778C499.095,603.911 498.614,609.124 498.614,614.418C498.614,628.373 502.223,639.201 509.442,646.9C516.66,654.6 526.319,658.45 538.418,658.45C545.293,658.45 551.824,657.126 558.011,654.48C564.198,651.833 569.698,647.863 574.51,642.569L572.242,656.525L602.765,656.525L624.833,527.075Z"/>
            <path d="M678.456,542.474C683.268,536.379 689.077,531.967 695.883,529.24C702.689,526.513 710.698,525.15 719.91,525.15L714.135,559.798C710.285,559.477 707.81,559.317 706.71,559.317C696.948,559.317 689.146,562.124 683.302,567.739C677.459,573.353 673.506,582.095 671.443,593.965L660.719,656.525L628.545,656.525L650.613,527.075L681.137,527.075L678.456,542.474Z" style="fill:rgb(254,255,254);fill-rule:nonzero;"/>
            <path d="M700.278,511.16C706.246,509.819 712.786,509.117 719.91,509.117L738.932,509.117L727.617,577.011L712.787,575.775C709.635,575.512 707.611,575.35 706.71,575.35C701.684,575.35 697.522,576.375 694.513,579.266C690.689,582.94 688.692,588.913 687.341,596.679L674.333,672.558L609.452,672.558L636.986,511.042L700.298,511.042L700.278,511.16ZM678.456,542.474L681.137,527.075L650.613,527.075L628.545,656.525L660.719,656.525L671.443,593.965C673.506,582.095 677.459,573.353 683.302,567.739C689.146,562.124 696.948,559.317 706.71,559.317C707.81,559.317 710.285,559.477 714.135,559.798L719.91,525.15C710.698,525.15 702.689,526.513 695.883,529.24C689.077,531.967 683.268,536.379 678.456,542.474Z"/>
            <path d="M753.304,658.45C743.679,658.45 734.57,657.207 725.977,654.72C717.383,652.234 710.681,648.986 705.868,644.975L718.243,617.786C723.055,621.476 728.933,624.443 735.876,626.689C742.82,628.935 749.797,630.057 756.81,630.057C764.097,630.057 769.528,628.975 773.103,626.809C776.677,624.644 778.465,621.556 778.465,617.546C778.465,614.337 776.884,612.011 773.721,610.568C770.559,609.124 765.472,607.6 758.46,605.996C750.485,604.232 743.92,602.307 738.764,600.221C733.608,598.136 729.139,594.727 725.358,589.995C721.577,585.263 719.686,578.807 719.686,570.626C719.686,556.349 724.808,545.201 735.051,537.181C745.295,529.16 758.735,525.15 775.371,525.15C783.071,525.15 790.564,526.112 797.851,528.037C805.139,529.962 811.326,532.609 816.413,535.978L804.864,563.407C795.789,556.831 784.858,553.542 772.071,553.542C765.059,553.542 759.731,554.745 756.088,557.152C752.444,559.558 750.622,562.605 750.622,566.295C750.622,569.663 752.204,572.11 755.366,573.634C758.528,575.157 763.822,576.802 771.246,578.566C779.084,580.331 785.511,582.215 790.53,584.221C795.548,586.226 799.914,589.554 803.626,594.206C807.338,598.858 809.195,605.194 809.195,613.214C809.195,627.651 804.004,638.8 793.623,646.66C783.243,654.52 769.803,658.45 753.304,658.45Z" style="fill:rgb(254,255,254);fill-rule:nonzero;"/>
            <path d="M710.241,596.467C705.999,589.72 703.556,581.17 703.556,570.626C703.556,550.915 710.927,535.66 725.069,524.586C737.881,514.554 754.562,509.117 775.371,509.117C784.49,509.117 793.364,510.262 801.995,512.542C811.18,514.969 818.944,518.388 825.356,522.634L836.43,529.967L814.474,582.112C815.082,582.799 815.679,583.509 816.264,584.243C821.953,591.371 825.325,600.923 825.325,613.214C825.325,633.225 817.787,648.519 803.398,659.414C790.471,669.202 773.85,674.483 753.304,674.483C742.09,674.483 731.48,673.011 721.468,670.114C710.327,666.891 701.744,662.461 695.505,657.262L686.128,649.448L710.241,596.467ZM753.304,658.45C769.803,658.45 783.243,654.52 793.623,646.66C804.004,638.8 809.195,627.651 809.195,613.214C809.195,605.194 807.338,598.858 803.626,594.206C799.914,589.554 795.548,586.226 790.53,584.221C785.511,582.215 779.084,580.331 771.246,578.566C763.822,576.802 758.528,575.157 755.366,573.634C752.204,572.11 750.622,569.663 750.622,566.295C750.622,562.605 752.444,559.558 756.088,557.152C759.731,554.745 765.059,553.542 772.071,553.542C784.858,553.542 795.789,556.831 804.864,563.407L816.413,535.978C811.326,532.609 805.139,529.962 797.851,528.037C790.564,526.112 783.071,525.15 775.371,525.15C758.735,525.15 745.295,529.16 735.051,537.181C724.808,545.201 719.686,556.349 719.686,570.626C719.686,578.807 721.577,585.263 725.358,589.995C729.139,594.727 733.608,598.136 738.764,600.221C743.92,602.307 750.485,604.232 758.46,605.996C765.472,607.6 770.559,609.124 773.721,610.568C776.884,612.011 778.465,614.337 778.465,617.546C778.465,621.556 776.677,624.644 773.103,626.809C769.528,628.975 764.097,630.057 756.81,630.057C749.797,630.057 742.82,628.935 735.876,626.689C728.933,624.443 723.055,621.476 718.243,617.786L705.868,644.975C710.681,648.986 717.383,652.234 725.977,654.72C734.57,657.207 743.679,658.45 753.304,658.45Z"/>
            <path d="M938.713,582.175C938.713,588.11 938.095,594.687 936.857,601.906L851.886,601.906C852.986,619.551 862.542,628.373 880.554,628.373C886.191,628.373 891.588,627.33 896.744,625.245C901.9,623.16 906.403,620.192 910.252,616.342L923.658,641.126C917.471,646.9 910.39,651.231 902.415,654.119C894.441,657.006 886.053,658.45 877.254,658.45C865.842,658.45 855.839,656.084 847.246,651.352C838.653,646.62 832.053,639.842 827.447,631.02C822.841,622.197 820.538,612.011 820.538,600.462C820.538,586.186 823.322,573.313 828.891,561.843C834.459,550.374 842.193,541.391 852.093,534.895C861.992,528.398 873.267,525.15 885.916,525.15C896.64,525.15 905.956,527.476 913.862,532.128C921.767,536.78 927.886,543.437 932.217,552.099C936.548,560.761 938.713,570.786 938.713,582.175ZM884.472,553.302C876.91,553.302 870.517,555.668 865.292,560.4C860.067,565.132 856.355,571.669 854.155,580.01L909.221,580.01C909.221,571.669 906.987,565.132 902.518,560.4C898.05,555.668 892.034,553.302 884.472,553.302Z" style="fill:rgb(254,255,254);fill-rule:nonzero;"/>
            <path d="M929.43,617.939L943.734,644.382L934.7,652.813C926.905,660.089 917.983,665.546 907.936,669.183C898.211,672.705 887.985,674.483 877.254,674.483C862.855,674.483 850.271,671.347 839.429,665.376C828.022,659.095 819.243,650.116 813.129,638.405C807.405,627.441 804.407,614.814 804.407,600.462C804.407,583.602 807.787,568.42 814.363,554.875C821.269,540.652 830.928,529.571 843.205,521.515C855.713,513.307 869.933,509.117 885.916,509.117C899.811,509.117 911.836,512.304 922.079,518.331C932.642,524.547 940.875,533.389 946.662,544.963C952.025,555.689 954.844,568.073 954.844,582.175C954.844,588.92 954.165,596.396 952.759,604.599L950.472,617.939L929.43,617.939ZM938.713,582.175C938.713,570.786 936.548,560.761 932.217,552.099C927.886,543.437 921.767,536.78 913.862,532.128C905.956,527.476 896.64,525.15 885.916,525.15C873.267,525.15 861.992,528.398 852.093,534.895C842.193,541.391 834.459,550.374 828.891,561.843C823.322,573.313 820.538,586.186 820.538,600.462C820.538,612.011 822.841,622.197 827.447,631.02C832.053,639.842 838.653,646.62 847.246,651.352C855.839,656.084 865.842,658.45 877.254,658.45C886.053,658.45 894.441,657.006 902.415,654.119C910.39,651.231 917.471,646.9 923.658,641.126L910.252,616.342C906.403,620.192 901.9,623.16 896.744,625.245C891.588,627.33 886.191,628.373 880.554,628.373C862.542,628.373 852.986,619.551 851.886,601.906L936.857,601.906C938.095,594.687 938.713,588.11 938.713,582.175ZM884.472,553.302C892.034,553.302 898.05,555.668 902.518,560.4C906.987,565.132 909.221,571.669 909.221,580.01L854.155,580.01C856.355,571.669 860.067,565.132 865.292,560.4C870.517,555.668 876.91,553.302 884.472,553.302Z"/>
        </g>
        <g transform="matrix(2.16979,0,0,2.18301,-472.874,-565.04)">
            <path d="M969.325,632.919C958.824,608.918 948.772,588.864 923.714,557.642C899.374,527.316 864.9,511.771 825.754,511.771L217.936,511.771L217.936,446.508L820.943,446.508C880.016,446.508 936.138,468.226 972.868,513.992C1003.79,552.52 1019.34,584.074 1031.27,611.986L1102.82,587.813L1044.87,753.565L900.595,656.142L969.325,632.919Z" style="fill:rgb(253,39,58);"/>
            <path d="M969.325,632.919C958.824,608.918 948.772,588.864 923.714,557.642C899.374,527.316 864.9,511.771 825.754,511.771L217.936,511.771L217.936,446.508L820.943,446.508C880.016,446.508 936.138,468.226 972.868,513.992C1003.79,552.52 1019.34,584.074 1031.27,611.986L1102.82,587.813L1044.87,753.565L900.595,656.142L969.325,632.919ZM973.775,645.93L931.32,660.275L1037.73,732.128L1080.46,609.88L1023.57,629.104L1018.55,617.363C1007,590.362 991.973,559.832 962.06,522.562C927.976,480.094 875.76,460.251 820.943,460.251C820.943,460.251 231.762,460.251 231.762,460.251L231.762,498.029L825.754,498.029C869.236,498.029 907.487,515.386 934.523,549.072C960.609,581.575 971.073,602.453 982.004,627.439L987.992,641.126L973.775,645.93Z" style="fill:rgb(254,255,254);"/>
        </g>
    </g>
</svg>
