<?xml version="1.0" encoding="UTF-8" standalone="no"?>
<!DOCTYPE svg PUBLIC "-//W3C//DTD SVG 1.1//EN" "http://www.w3.org/Graphics/SVG/1.1/DTD/svg11.dtd">
<svg width="100%" height="100%" viewBox="0 0 1000 1000" version="1.1" xmlns="http://www.w3.org/2000/svg" xmlns:xlink="http://www.w3.org/1999/xlink" xml:space="preserve" xmlns:serif="http://www.serif.com/" style="fill-rule:evenodd;clip-rule:evenodd;stroke-linecap:round;stroke-linejoin:round;stroke-miterlimit:10;">
    <g id="Roll-gizmo" serif:id="Roll gizmo">
        <path id="Ground-background" serif:id="Ground background" d="M140,500C140,698.823 301.178,860 500,860C698.823,860 860,698.823 860,500L500,500L140,500Z" style="fill:#73492b;"/>
        <path id="Sky-background" serif:id="Sky background" d="M860,500C860,301.178 698.823,140 500,140C301.177,140 140,301.178 140,500L500,500L860,500Z" style="fill:#5170ac;"/>
        <g id="Pitch-gizmo" serif:id="Pitch gizmo">
            <path d="M140,500C140,698.823 301.178,860 500,860C698.823,860 860,698.823 860,500L500,500L140,500Z" style="fill:#644128;"/>
            <path d="M860,500C860,301.178 698.823,140 500,140C301.177,140 140,301.178 140,500L500,500L860,500Z" style="fill:#4a6393;"/>
            <path d="M140,500L860,500" style="fill:none;stroke:#000;stroke-width:3px;"/>
            <g id="Pitch-guides" serif:id="Pitch guides">
                <g id="_-20" serif:id="-20">
                    <path d="M661.38,716.056C661.3,716.152 661.28,716.248 661.32,716.344C661.36,716.44 661.44,716.488 661.56,716.488L674.1,716.488C674.3,716.488 674.47,716.572 674.61,716.74C674.75,716.908 674.82,717.112 674.82,717.352L674.82,724.336C674.82,724.576 674.75,724.78 674.61,724.948C674.47,725.116 674.3,725.2 674.1,725.2L651.9,725.2C651.7,725.2 651.53,725.116 651.39,724.948C651.25,724.78 651.18,724.576 651.18,724.336L651.18,717.064C651.18,716.632 651.28,716.272 651.48,715.984C653.08,713.44 654.2,711.712 654.84,710.8C658.36,705.376 660.86,701.272 662.34,698.488C664.5,694.36 665.58,690.88 665.58,688.048C665.58,686.416 665.31,685.156 664.77,684.268C664.23,683.38 663.5,682.936 662.58,682.936C661.66,682.936 660.92,683.38 660.36,684.268C659.8,685.156 659.54,686.296 659.58,687.688L659.58,690.64C659.58,690.88 659.51,691.084 659.37,691.252C659.23,691.42 659.06,691.504 658.86,691.504L651.72,691.504C651.52,691.504 651.35,691.42 651.21,691.252C651.07,691.084 651,690.88 651,690.64L651,687.256C651.16,683.32 652.34,680.164 654.54,677.788C656.74,675.412 659.54,674.224 662.94,674.224C666.3,674.224 669.01,675.496 671.07,678.04C673.13,680.584 674.16,683.944 674.16,688.12C674.16,690.616 673.83,692.992 673.17,695.248C672.51,697.504 671.44,699.928 669.96,702.52C668.84,704.488 666.92,707.56 664.2,711.736L661.38,716.056Z" style="fill:#fff;fill-rule:nonzero;"/>
                    <path d="M689.4,725.992C685.88,725.992 683.04,724.66 680.88,721.996C678.72,719.332 677.64,715.816 677.64,711.448L677.64,688.552C677.64,684.184 678.72,680.668 680.88,678.004C683.04,675.34 685.88,674.008 689.4,674.008C691.72,674.008 693.78,674.608 695.58,675.808C697.38,677.008 698.77,678.712 699.75,680.92C700.73,683.128 701.22,685.672 701.22,688.552L701.22,711.448C701.22,714.328 700.73,716.872 699.75,719.08C698.77,721.288 697.38,722.992 695.58,724.192C693.78,725.392 691.72,725.992 689.4,725.992ZM689.4,717.28C690.4,717.28 691.21,716.8 691.83,715.84C692.45,714.88 692.76,713.608 692.76,712.024L692.76,687.976C692.76,686.392 692.45,685.12 691.83,684.16C691.21,683.2 690.4,682.72 689.4,682.72C688.4,682.72 687.6,683.2 687,684.16C686.4,685.12 686.1,686.392 686.1,687.976L686.1,712.024C686.1,713.608 686.4,714.88 687,715.84C687.6,716.8 688.4,717.28 689.4,717.28Z" style="fill:#fff;fill-rule:nonzero;"/>
                    <path d="M370,700L630,700" style="fill:none;stroke:#fff;stroke-width:6.81px;"/>
                    <path d="M300.16,716.056C300.08,716.152 300.06,716.248 300.1,716.344C300.14,716.44 300.22,716.488 300.34,716.488L312.88,716.488C313.08,716.488 313.25,716.572 313.39,716.74C313.53,716.908 313.6,717.112 313.6,717.352L313.6,724.336C313.6,724.576 313.53,724.78 313.39,724.948C313.25,725.116 313.08,725.2 312.88,725.2L290.68,725.2C290.48,725.2 290.31,725.116 290.17,724.948C290.03,724.78 289.96,724.576 289.96,724.336L289.96,717.064C289.96,716.632 290.06,716.272 290.26,715.984C291.86,713.44 292.98,711.712 293.62,710.8C297.14,705.376 299.64,701.272 301.12,698.488C303.28,694.36 304.36,690.88 304.36,688.048C304.36,686.416 304.09,685.156 303.55,684.268C303.01,683.38 302.28,682.936 301.36,682.936C300.44,682.936 299.7,683.38 299.14,684.268C298.58,685.156 298.32,686.296 298.36,687.688L298.36,690.64C298.36,690.88 298.29,691.084 298.15,691.252C298.01,691.42 297.84,691.504 297.64,691.504L290.5,691.504C290.3,691.504 290.13,691.42 289.99,691.252C289.85,691.084 289.78,690.88 289.78,690.64L289.78,687.256C289.94,683.32 291.12,680.164 293.32,677.788C295.52,675.412 298.32,674.224 301.72,674.224C305.08,674.224 307.79,675.496 309.85,678.04C311.91,680.584 312.94,683.944 312.94,688.12C312.94,690.616 312.61,692.992 311.95,695.248C311.29,697.504 310.22,699.928 308.74,702.52C307.62,704.488 305.7,707.56 302.98,711.736L300.16,716.056Z" style="fill:#fff;fill-rule:nonzero;"/>
                    <path d="M328.18,725.992C324.66,725.992 321.82,724.66 319.66,721.996C317.5,719.332 316.42,715.816 316.42,711.448L316.42,688.552C316.42,684.184 317.5,680.668 319.66,678.004C321.82,675.34 324.66,674.008 328.18,674.008C330.5,674.008 332.56,674.608 334.36,675.808C336.16,677.008 337.55,678.712 338.53,680.92C339.51,683.128 340,685.672 340,688.552L340,711.448C340,714.328 339.51,716.872 338.53,719.08C337.55,721.288 336.16,722.992 334.36,724.192C332.56,725.392 330.5,725.992 328.18,725.992ZM328.18,717.28C329.18,717.28 329.99,716.8 330.61,715.84C331.23,714.88 331.54,713.608 331.54,712.024L331.54,687.976C331.54,686.392 331.23,685.12 330.61,684.16C329.99,683.2 329.18,682.72 328.18,682.72C327.18,682.72 326.38,683.2 325.78,684.16C325.18,685.12 324.88,686.392 324.88,687.976L324.88,712.024C324.88,713.608 325.18,714.88 325.78,715.84C326.38,716.8 327.18,717.28 328.18,717.28Z" style="fill:#fff;fill-rule:nonzero;"/>
                </g>
                <path id="_-15" serif:id="-15" d="M440,650L560,650" style="fill:none;stroke:#fff;stroke-width:6.81px;"/>
                <g id="_-10" serif:id="-10">
                    <path d="M635.52,575.016C635.84,574.872 636.14,574.8 636.42,574.8L643.68,574.8C643.88,574.8 644.05,574.884 644.19,575.052C644.33,575.22 644.4,575.424 644.4,575.664L644.4,624.336C644.4,624.576 644.33,624.78 644.19,624.948C644.05,625.116 643.88,625.2 643.68,625.2L636.66,625.2C636.46,625.2 636.29,625.116 636.15,624.948C636.01,624.78 635.94,624.576 635.94,624.336L635.94,585.024C635.94,584.832 635.84,584.736 635.64,584.736L631.02,585.384L630.9,585.384C630.46,585.384 630.24,585.12 630.24,584.592L630.06,578.4C630.06,577.92 630.24,577.584 630.6,577.392L635.52,575.016Z" style="fill:#fff;fill-rule:nonzero;"/>
                    <path d="M660.12,625.992C656.6,625.992 653.76,624.66 651.6,621.996C649.44,619.332 648.36,615.816 648.36,611.448L648.36,588.552C648.36,584.184 649.44,580.668 651.6,578.004C653.76,575.34 656.6,574.008 660.12,574.008C662.44,574.008 664.5,574.608 666.3,575.808C668.1,577.008 669.49,578.712 670.47,580.92C671.45,583.128 671.94,585.672 671.94,588.552L671.94,611.448C671.94,614.328 671.45,616.872 670.47,619.08C669.49,621.288 668.1,622.992 666.3,624.192C664.5,625.392 662.44,625.992 660.12,625.992ZM660.12,617.28C661.12,617.28 661.93,616.8 662.55,615.84C663.17,614.88 663.48,613.608 663.48,612.024L663.48,587.976C663.48,586.392 663.17,585.12 662.55,584.16C661.93,583.2 661.12,582.72 660.12,582.72C659.12,582.72 658.32,583.2 657.72,584.16C657.12,585.12 656.82,586.392 656.82,587.976L656.82,612.024C656.82,613.608 657.12,614.88 657.72,615.84C658.32,616.8 659.12,617.28 660.12,617.28Z" style="fill:#fff;fill-rule:nonzero;"/>
                    <path d="M400,600L600,600" style="fill:none;stroke:#fff;stroke-width:6.81px;"/>
                    <path d="M333.52,575.016C333.84,574.872 334.14,574.8 334.42,574.8L341.68,574.8C341.88,574.8 342.05,574.884 342.19,575.052C342.33,575.22 342.4,575.424 342.4,575.664L342.4,624.336C342.4,624.576 342.33,624.78 342.19,624.948C342.05,625.116 341.88,625.2 341.68,625.2L334.66,625.2C334.46,625.2 334.29,625.116 334.15,624.948C334.01,624.78 333.94,624.576 333.94,624.336L333.94,585.024C333.94,584.832 333.84,584.736 333.64,584.736L329.02,585.384L328.9,585.384C328.46,585.384 328.24,585.12 328.24,584.592L328.06,578.4C328.06,577.92 328.24,577.584 328.6,577.392L333.52,575.016Z" style="fill:#fff;fill-rule:nonzero;"/>
                    <path d="M358.12,625.992C354.6,625.992 351.76,624.66 349.6,621.996C347.44,619.332 346.36,615.816 346.36,611.448L346.36,588.552C346.36,584.184 347.44,580.668 349.6,578.004C351.76,575.34 354.6,574.008 358.12,574.008C360.44,574.008 362.5,574.608 364.3,575.808C366.1,577.008 367.49,578.712 368.47,580.92C369.45,583.128 369.94,585.672 369.94,588.552L369.94,611.448C369.94,614.328 369.45,616.872 368.47,619.08C367.49,621.288 366.1,622.992 364.3,624.192C362.5,625.392 360.44,625.992 358.12,625.992ZM358.12,617.28C359.12,617.28 359.93,616.8 360.55,615.84C361.17,614.88 361.48,613.608 361.48,612.024L361.48,587.976C361.48,586.392 361.17,585.12 360.55,584.16C359.93,583.2 359.12,582.72 358.12,582.72C357.12,582.72 356.32,583.2 355.72,584.16C355.12,585.12 354.82,586.392 354.82,587.976L354.82,612.024C354.82,613.608 355.12,614.88 355.72,615.84C356.32,616.8 357.12,617.28 358.12,617.28Z" style="fill:#fff;fill-rule:nonzero;"/>
                </g>
                <path id="_-5" serif:id="-5" d="M440,550L560,550" style="fill:none;stroke:#fff;stroke-width:6.81px;"/>
                <path id="_0" serif:id="0" d="M275,500L725,500" style="fill:none;stroke:#fff;stroke-width:6.81px;"/>
                <path id="_-51" serif:id="+5" d="M440,450L560,450" style="fill:none;stroke:#fff;stroke-width:6.81px;"/>
                <g id="_-101" serif:id="+10">
                    <path d="M635.52,375.016C635.84,374.872 636.14,374.8 636.42,374.8L643.68,374.8C643.88,374.8 644.05,374.884 644.19,375.052C644.33,375.22 644.4,375.424 644.4,375.664L644.4,424.336C644.4,424.576 644.33,424.78 644.19,424.948C644.05,425.116 643.88,425.2 643.68,425.2L636.66,425.2C636.46,425.2 636.29,425.116 636.15,424.948C636.01,424.78 635.94,424.576 635.94,424.336L635.94,385.024C635.94,384.832 635.84,384.736 635.64,384.736L631.02,385.384L630.9,385.384C630.46,385.384 630.24,385.12 630.24,384.592L630.06,378.4C630.06,377.92 630.24,377.584 630.6,377.392L635.52,375.016Z" style="fill:#fff;fill-rule:nonzero;"/>
                    <path d="M660.12,425.992C656.6,425.992 653.76,424.66 651.6,421.996C649.44,419.332 648.36,415.816 648.36,411.448L648.36,388.552C648.36,384.184 649.44,380.668 651.6,378.004C653.76,375.34 656.6,374.008 660.12,374.008C662.44,374.008 664.5,374.608 666.3,375.808C668.1,377.008 669.49,378.712 670.47,380.92C671.45,383.128 671.94,385.672 671.94,388.552L671.94,411.448C671.94,414.328 671.45,416.872 670.47,419.08C669.49,421.288 668.1,422.992 666.3,424.192C664.5,425.392 662.44,425.992 660.12,425.992ZM660.12,417.28C661.12,417.28 661.93,416.8 662.55,415.84C663.17,414.88 663.48,413.608 663.48,412.024L663.48,387.976C663.48,386.392 663.17,385.12 662.55,384.16C661.93,383.2 661.12,382.72 660.12,382.72C659.12,382.72 658.32,383.2 657.72,384.16C657.12,385.12 656.82,386.392 656.82,387.976L656.82,412.024C656.82,413.608 657.12,414.88 657.72,415.84C658.32,416.8 659.12,417.28 660.12,417.28Z" style="fill:#fff;fill-rule:nonzero;"/>
                    <path d="M400,400L600,400" style="fill:none;stroke:#fff;stroke-width:6.81px;"/>
                    <path d="M333.52,375.016C333.84,374.872 334.14,374.8 334.42,374.8L341.68,374.8C341.88,374.8 342.05,374.884 342.19,375.052C342.33,375.22 342.4,375.424 342.4,375.664L342.4,424.336C342.4,424.576 342.33,424.78 342.19,424.948C342.05,425.116 341.88,425.2 341.68,425.2L334.66,425.2C334.46,425.2 334.29,425.116 334.15,424.948C334.01,424.78 333.94,424.576 333.94,424.336L333.94,385.024C333.94,384.832 333.84,384.736 333.64,384.736L329.02,385.384L328.9,385.384C328.46,385.384 328.24,385.12 328.24,384.592L328.06,378.4C328.06,377.92 328.24,377.584 328.6,377.392L333.52,375.016Z" style="fill:#fff;fill-rule:nonzero;"/>
                    <path d="M358.12,425.992C354.6,425.992 351.76,424.66 349.6,421.996C347.44,419.332 346.36,415.816 346.36,411.448L346.36,388.552C346.36,384.184 347.44,380.668 349.6,378.004C351.76,375.34 354.6,374.008 358.12,374.008C360.44,374.008 362.5,374.608 364.3,375.808C366.1,377.008 367.49,378.712 368.47,380.92C369.45,383.128 369.94,385.672 369.94,388.552L369.94,411.448C369.94,414.328 369.45,416.872 368.47,419.08C367.49,421.288 366.1,422.992 364.3,424.192C362.5,425.392 360.44,425.992 358.12,425.992ZM358.12,417.28C359.12,417.28 359.93,416.8 360.55,415.84C361.17,414.88 361.48,413.608 361.48,412.024L361.48,387.976C361.48,386.392 361.17,385.12 360.55,384.16C359.93,383.2 359.12,382.72 358.12,382.72C357.12,382.72 356.32,383.2 355.72,384.16C355.12,385.12 354.82,386.392 354.82,387.976L354.82,412.024C354.82,413.608 355.12,414.88 355.72,415.84C356.32,416.8 357.12,417.28 358.12,417.28Z" style="fill:#fff;fill-rule:nonzero;"/>
                </g>
                <path id="_-151" serif:id="+15" d="M440,350L560,350" style="fill:none;stroke:#fff;stroke-width:6.81px;"/>
                <g id="_-201" serif:id="+20">
                    <path d="M670.38,316.056C670.3,316.152 670.28,316.248 670.32,316.344C670.36,316.44 670.44,316.488 670.56,316.488L683.1,316.488C683.3,316.488 683.47,316.572 683.61,316.74C683.75,316.908 683.82,317.112 683.82,317.352L683.82,324.336C683.82,324.576 683.75,324.78 683.61,324.948C683.47,325.116 683.3,325.2 683.1,325.2L660.9,325.2C660.7,325.2 660.53,325.116 660.39,324.948C660.25,324.78 660.18,324.576 660.18,324.336L660.18,317.064C660.18,316.632 660.28,316.272 660.48,315.984C662.08,313.44 663.2,311.712 663.84,310.8C667.36,305.376 669.86,301.272 671.34,298.488C673.5,294.36 674.58,290.88 674.58,288.048C674.58,286.416 674.31,285.156 673.77,284.268C673.23,283.38 672.5,282.936 671.58,282.936C670.66,282.936 669.92,283.38 669.36,284.268C668.8,285.156 668.54,286.296 668.58,287.688L668.58,290.64C668.58,290.88 668.51,291.084 668.37,291.252C668.23,291.42 668.06,291.504 667.86,291.504L660.72,291.504C660.52,291.504 660.35,291.42 660.21,291.252C660.07,291.084 660,290.88 660,290.64L660,287.256C660.16,283.32 661.34,280.164 663.54,277.788C665.74,275.412 668.54,274.224 671.94,274.224C675.3,274.224 678.01,275.496 680.07,278.04C682.13,280.584 683.16,283.944 683.16,288.12C683.16,290.616 682.83,292.992 682.17,295.248C681.51,297.504 680.44,299.928 678.96,302.52C677.84,304.488 675.92,307.56 673.2,311.736L670.38,316.056Z" style="fill:#fff;fill-rule:nonzero;"/>
                    <path d="M698.4,325.992C694.88,325.992 692.04,324.66 689.88,321.996C687.72,319.332 686.64,315.816 686.64,311.448L686.64,288.552C686.64,284.184 687.72,280.668 689.88,278.004C692.04,275.34 694.88,274.008 698.4,274.008C700.72,274.008 702.78,274.608 704.58,275.808C706.38,277.008 707.77,278.712 708.75,280.92C709.73,283.128 710.22,285.672 710.22,288.552L710.22,311.448C710.22,314.328 709.73,316.872 708.75,319.08C707.77,321.288 706.38,322.992 704.58,324.192C702.78,325.392 700.72,325.992 698.4,325.992ZM698.4,317.28C699.4,317.28 700.21,316.8 700.83,315.84C701.45,314.88 701.76,313.608 701.76,312.024L701.76,287.976C701.76,286.392 701.45,285.12 700.83,284.16C700.21,283.2 699.4,282.72 698.4,282.72C697.4,282.72 696.6,283.2 696,284.16C695.4,285.12 695.1,286.392 695.1,287.976L695.1,312.024C695.1,313.608 695.4,314.88 696,315.84C696.6,316.8 697.4,317.28 698.4,317.28Z" style="fill:#fff;fill-rule:nonzero;"/>
                    <path d="M370,300L630,300" style="fill:none;stroke:#fff;stroke-width:6.81px;"/>
                    <path d="M300.16,316.056C300.08,316.152 300.06,316.248 300.1,316.344C300.14,316.44 300.22,316.488 300.34,316.488L312.88,316.488C313.08,316.488 313.25,316.572 313.39,316.74C313.53,316.908 313.6,317.112 313.6,317.352L313.6,324.336C313.6,324.576 313.53,324.78 313.39,324.948C313.25,325.116 313.08,325.2 312.88,325.2L290.68,325.2C290.48,325.2 290.31,325.116 290.17,324.948C290.03,324.78 289.96,324.576 289.96,324.336L289.96,317.064C289.96,316.632 290.06,316.272 290.26,315.984C291.86,313.44 292.98,311.712 293.62,310.8C297.14,305.376 299.64,301.272 301.12,298.488C303.28,294.36 304.36,290.88 304.36,288.048C304.36,286.416 304.09,285.156 303.55,284.268C303.01,283.38 302.28,282.936 301.36,282.936C300.44,282.936 299.7,283.38 299.14,284.268C298.58,285.156 298.32,286.296 298.36,287.688L298.36,290.64C298.36,290.88 298.29,291.084 298.15,291.252C298.01,291.42 297.84,291.504 297.64,291.504L290.5,291.504C290.3,291.504 290.13,291.42 289.99,291.252C289.85,291.084 289.78,290.88 289.78,290.64L289.78,287.256C289.94,283.32 291.12,280.164 293.32,277.788C295.52,275.412 298.32,274.224 301.72,274.224C305.08,274.224 307.79,275.496 309.85,278.04C311.91,280.584 312.94,283.944 312.94,288.12C312.94,290.616 312.61,292.992 311.95,295.248C311.29,297.504 310.22,299.928 308.74,302.52C307.62,304.488 305.7,307.56 302.98,311.736L300.16,316.056Z" style="fill:#fff;fill-rule:nonzero;"/>
                    <path d="M328.18,325.992C324.66,325.992 321.82,324.66 319.66,321.996C317.5,319.332 316.42,315.816 316.42,311.448L316.42,288.552C316.42,284.184 317.5,280.668 319.66,278.004C321.82,275.34 324.66,274.008 328.18,274.008C330.5,274.008 332.56,274.608 334.36,275.808C336.16,277.008 337.55,278.712 338.53,280.92C339.51,283.128 340,285.672 340,288.552L340,311.448C340,314.328 339.51,316.872 338.53,319.08C337.55,321.288 336.16,322.992 334.36,324.192C332.56,325.392 330.5,325.992 328.18,325.992ZM328.18,317.28C329.18,317.28 329.99,316.8 330.61,315.84C331.23,314.88 331.54,313.608 331.54,312.024L331.54,287.976C331.54,286.392 331.23,285.12 330.61,284.16C329.99,283.2 329.18,282.72 328.18,282.72C327.18,282.72 326.38,283.2 325.78,284.16C325.18,285.12 324.88,286.392 324.88,287.976L324.88,312.024C324.88,313.608 325.18,314.88 325.78,315.84C326.38,316.8 327.18,317.28 328.18,317.28Z" style="fill:#fff;fill-rule:nonzero;"/>
                </g>
            </g>
        </g>
        <path id="Ground-arc" serif:id="Ground arc" d="M50,500C50,748.528 251.472,950 500,950C748.528,950 950,748.528 950,500L860,500C860,698.823 698.823,860 500,860C301.178,860 140,698.823 140,500L50,500Z" style="fill:#73492b;"/>
        <path id="Sky-arc" serif:id="Sky arc" d="M950,500C950,251.472 748.528,50 500,50C251.472,50 50,251.472 50,500L140,500C140,301.177 301.178,140 500,140C698.823,140 860,301.177 860,500L950,500Z" style="fill:#5170ac;"/>
        <g id="Roll-guides" serif:id="Roll guides">
            <path d="M860,500L950,500" style="fill:none;stroke:#fff;stroke-width:20.83px;stroke-linecap:butt;"/>
            <path d="M822.62,313.735L878.912,281.235" style="fill:none;stroke:#fff;stroke-width:14.58px;"/>
            <circle cx="786.067" cy="213.622" r="12.5" style="fill:#fff;"/>
            <path d="M686.27,177.371L718.77,121.079" style="fill:none;stroke:#fff;stroke-width:14.58px;"/>
            <path d="M627.44,149.861L649.672,88.781" style="fill:none;stroke:#fff;stroke-width:8.33px;"/>
            <path d="M564.695,133.098L575.982,69.085" style="fill:none;stroke:#fff;stroke-width:8.33px;"/>
            <path d="M503.13,131.239C502.538,132.425 501.326,133.174 500,133.174C498.674,133.174 497.462,132.425 496.87,131.239C489.192,115.883 469.543,76.586 462.533,62.565C461.99,61.48 462.048,60.192 462.686,59.16C463.324,58.128 464.45,57.5 465.663,57.5L534.337,57.5C535.55,57.5 536.676,58.128 537.314,59.16C537.952,60.192 538.01,61.48 537.467,62.565C530.457,76.586 510.808,115.883 503.13,131.239Z" style="fill:#fff;"/>
            <path d="M435.305,133.098L424.018,69.085" style="fill:none;stroke:#fff;stroke-width:8.33px;"/>
            <path d="M372.56,149.861L350.328,88.781" style="fill:none;stroke:#fff;stroke-width:8.33px;"/>
            <path d="M313.747,177.401L281.247,121.109" style="fill:none;stroke:#fff;stroke-width:14.58px;"/>
            <circle cx="213.622" cy="213.622" r="12.5" style="fill:#fff;"/>
            <path d="M177.38,313.735L121.088,281.235" style="fill:none;stroke:#fff;stroke-width:14.58px;"/>
            <path d="M50,500L140,500" style="fill:none;stroke:#fff;stroke-width:16.67px;stroke-linecap:butt;"/>
        </g>
    </g>
    <g id="Pitch-and-yaw-Index" serif:id="Pitch and yaw Index">
        <path d="M520,610L480,610L480,857.5C480,858.881 481.119,860 482.5,860C489.682,860 510.318,860 517.5,860C518.881,860 520,858.881 520,857.5C520,831.416 520,610 520,610Z" style="fill:#4a2f1b;"/>
        <path d="M374,500C374,569.588 430.412,626 500,626C569.588,626 626,569.588 626,500L590.017,500C590.017,549.715 549.715,590.017 500,590.017C450.285,590.017 409.983,549.715 409.983,500L374,500Z" style="fill:#4a2f1b;"/>
        <rect x="491" y="500" width="18" height="126" style="fill:#4a2f1b;"/>
        <path d="M587.5,500L762.5,500" style="fill:none;stroke:#deae51;stroke-width:16.67px;"/>
        <path d="M237.5,500L412.5,500" style="fill:none;stroke:#deae51;stroke-width:16.67px;"/>
        <circle cx="500" cy="500" r="20" style="fill:#deae51;"/>
    </g>
    <path id="Roll-index" serif:id="Roll index" d="M498.658,142.683C498.912,142.175 499.432,141.854 500,141.854C500.568,141.854 501.088,142.175 501.342,142.683C506.284,152.568 523.422,186.843 527.915,195.829C528.147,196.294 528.122,196.846 527.849,197.289C527.576,197.731 527.093,198 526.573,198C517.127,198 482.873,198 473.427,198C472.907,198 472.424,197.731 472.151,197.289C471.878,196.846 471.853,196.294 472.085,195.829C476.578,186.843 493.716,152.568 498.658,142.683Z" style="fill:#deae51;"/>
    <circle cx="500" cy="500" r="360" style="fill:none;stroke:#000;stroke-width:3px;"/>
    <path d="M500,1000C499.536,1000 499.071,999.999 498.584,999.998L498.384,999.997L498.194,999.997L497.907,999.996L496.871,999.99L496.769,999.99L496.391,999.987L495.816,999.983L495.563,999.98L495.155,999.977L494.812,999.973L494.771,999.973L494.572,999.97C403.641,998.996 318.501,973.702 245.338,930.287C174.043,888.096 113.172,828.17 69.613,754.493C25.399,679.944 0,592.915 0,500C0,224.042 224.042,0 500,0C775.958,0 1000,224.042 1000,500C1000,592.915 974.601,679.944 930.387,754.493C886.825,828.175 825.955,888.099 754.662,930.287C681.503,973.707 596.361,999.001 505.428,999.97L505.229,999.973L505.188,999.973L504.845,999.977L504.437,999.98L504.184,999.983L503.609,999.987L503.231,999.99L503.129,999.99L502.093,999.996L501.806,999.997L501.616,999.997L501.416,999.998L501.047,999.999L500,1000ZM628.245,931.431C814.212,876.159 950,703.812 950,500C950,251.638 748.362,50 500,50C251.638,50 50,251.638 50,500C50,703.812 185.788,876.159 371.755,931.431L430.5,830L569.5,830L628.245,931.431Z" style="fill:#3e3e3e;"/>
    <path d="M502.906,999.991L502.093,999.996L501.806,999.997L501.616,999.997L501.416,999.998L501.047,999.999L500,1000C499.536,1000 499.071,999.999 498.584,999.998L498.384,999.997L498.194,999.997L497.907,999.996L496.871,999.99L496.769,999.99L496.391,999.987L495.816,999.983L495.563,999.98L495.155,999.977L494.812,999.973L494.771,999.973L494.572,999.97C403.641,998.996 318.501,973.702 245.338,930.287C174.043,888.096 113.172,828.17 69.613,754.493C25.399,679.944 0,592.915 0,500C0,224.042 224.042,0 500,0C775.958,0 1000,224.042 1000,500C1000,592.915 974.601,679.944 930.387,754.493C886.825,828.175 825.955,888.099 754.662,930.287C681.503,973.707 596.361,999.001 505.428,999.97L505.413,999.971L505.397,996.971C595.782,996.007 680.412,970.866 753.131,927.708L753.134,927.706C823.999,885.77 884.504,826.206 927.805,752.966L927.807,752.963C971.755,678.862 997,592.356 997,500C997,225.698 774.302,3 500,3C225.698,3 3,225.698 3,500C3,592.356 28.245,678.862 72.193,752.963L72.195,752.966C115.493,826.201 175.999,885.768 246.866,927.706L246.869,927.707C319.592,970.861 404.22,996.002 494.604,996.971L494.612,996.971C494.643,996.971 494.674,996.972 494.705,996.973C494.736,996.973 494.768,996.973 494.8,996.973C494.818,996.973 494.836,996.973 494.855,996.973L495.18,996.977L495.19,996.977L495.577,996.98C495.584,996.98 495.591,996.98 495.598,996.98L495.838,996.983L496.413,996.987L496.788,996.99C496.821,996.99 496.854,996.991 496.887,996.992L496.887,996.99C496.887,996.99 497.903,996.996 497.898,996.996C497.907,996.996 497.916,996.996 497.925,996.996L498.197,996.997C498.203,996.997 498.216,996.997 498.216,996.997C498.317,996.997 498.413,997.002 498.504,997.011C498.529,997.002 498.555,996.998 498.583,996.998L498.594,996.998C499.077,996.999 499.538,997 499.999,997L501.043,996.999L501.043,997.016C501.116,997.004 501.194,996.998 501.277,996.998C501.336,996.998 501.394,997 501.45,997.004C501.488,997 501.527,996.998 501.568,996.998C501.644,996.997 501.716,997 501.786,997.005C501.792,997.006 501.797,997.006 501.803,997.007L501.803,996.997L502.077,996.996L503.113,996.99C502.827,996.992 502.551,997.033 502.29,997.109C503.31,997.482 503.261,998.736 502.906,999.991ZM505.409,999.971L505.309,999.972L505.389,996.971L505.409,999.971ZM505.215,999.973L505.194,999.973L505.2,996.973L505.215,999.973ZM505.167,999.973L504.845,999.977L504.833,999.977L504.82,996.977L505.145,996.973L505.167,999.973ZM504.828,999.977L504.437,999.98L504.43,999.98L504.423,996.98L504.81,996.977L504.828,999.977ZM504.419,999.98L504.184,999.983L503.609,999.987L503.598,999.987L503.587,996.987L504.162,996.983L504.402,996.98L504.419,999.98ZM503.592,999.987L503.231,999.99L503.223,999.99L503.216,996.99L503.574,996.987L503.592,999.987ZM503.223,999.99L503.172,999.99L503.214,996.99L503.223,999.99ZM625.649,932.934L567.771,833C567.771,833 432.229,833 432.229,833L374.351,932.934C373.656,934.134 372.229,934.701 370.9,934.306C183.694,878.666 47,705.171 47,500C47,249.983 249.983,47 500,47C750.017,47 953,249.983 953,500C953,705.171 816.306,878.666 629.1,934.306C627.771,934.701 626.344,934.134 625.649,932.934ZM628.245,931.431C814.212,876.159 950,703.812 950,500C950,251.638 748.362,50 500,50C251.638,50 50,251.638 50,500C50,703.812 185.788,876.159 371.755,931.431L430.5,830L569.5,830L628.245,931.431Z"/>
</svg>
