<?xml version="1.0" encoding="UTF-8" standalone="no"?>
<!DOCTYPE svg PUBLIC "-//W3C//DTD SVG 1.1//EN" "http://www.w3.org/Graphics/SVG/1.1/DTD/svg11.dtd">
<svg width="100%" height="100%" viewBox="0 0 1000 1000" version="1.1" xmlns="http://www.w3.org/2000/svg" xmlns:xlink="http://www.w3.org/1999/xlink" xml:space="preserve" xmlns:serif="http://www.serif.com/" style="fill-rule:evenodd;clip-rule:evenodd;stroke-linecap:round;stroke-linejoin:round;stroke-miterlimit:1.5;">
    <g id="Chat-bubble" serif:id="Chat bubble" transform="matrix(1.81901,0,0,1.82413,-401.153,-489.5)">
        <path d="M758.758,316.531C758.758,297.981 735.568,279.724 717.018,279.724L268.886,279.724C251.495,279.724 231.908,299.14 231.908,316.531L231.908,624.608C231.908,640.618 246.505,655.26 268.886,655.26L433.772,655.26C452.683,655.26 466.131,662.783 466.131,681.695L466.131,804.994C466.131,804.994 521.08,699.962 534.2,675.288C541.823,660.95 551.516,655.26 569.696,655.26L717.018,655.26C734.3,655.26 758.758,634.859 758.758,617.577L758.758,316.531Z" style="fill:rgb(6,6,81);"/>
        <clipPath id="_clip1">
            <path d="M758.758,316.531C758.758,297.981 735.568,279.724 717.018,279.724L268.886,279.724C251.495,279.724 231.908,299.14 231.908,316.531L231.908,624.608C231.908,640.618 246.505,655.26 268.886,655.26L433.772,655.26C452.683,655.26 466.131,662.783 466.131,681.695L466.131,804.994C466.131,804.994 521.08,699.962 534.2,675.288C541.823,660.95 551.516,655.26 569.696,655.26L717.018,655.26C734.3,655.26 758.758,634.859 758.758,617.577L758.758,316.531Z"/>
        </clipPath>
        <g clip-path="url(#_clip1)">
            <g id="q" transform="matrix(217.71,0,0,227.834,511.458,549.535)">
                <path d="M0.522,-0.501C0.529,-0.501 0.537,-0.492 0.537,-0.485L0.537,0.251C0.537,0.26 0.529,0.265 0.522,0.265L0.428,0.265C0.421,0.265 0.412,0.258 0.412,0.251L0.412,-0.054C0.412,-0.058 0.41,-0.059 0.407,-0.056C0.396,-0.047 0.37,-0.026 0.348,-0.015C0.321,0 0.29,0.008 0.255,0.008C0.212,0.008 0.175,-0.002 0.142,-0.023C0.109,-0.044 0.084,-0.073 0.066,-0.111C0.047,-0.149 0.038,-0.193 0.038,-0.244C0.038,-0.295 0.047,-0.34 0.066,-0.379C0.084,-0.418 0.11,-0.448 0.142,-0.469C0.175,-0.49 0.213,-0.501 0.255,-0.501C0.29,-0.501 0.322,-0.494 0.349,-0.478C0.376,-0.464 0.391,-0.452 0.409,-0.434C0.411,-0.433 0.413,-0.432 0.413,-0.436L0.413,-0.485C0.413,-0.492 0.421,-0.501 0.428,-0.501L0.522,-0.501ZM0.268,-0.103C0.304,-0.103 0.332,-0.115 0.352,-0.14C0.372,-0.165 0.382,-0.2 0.382,-0.246C0.382,-0.292 0.372,-0.328 0.352,-0.353C0.332,-0.378 0.304,-0.39 0.268,-0.39C0.232,-0.39 0.204,-0.378 0.184,-0.352C0.163,-0.326 0.153,-0.29 0.153,-0.244C0.153,-0.199 0.163,-0.164 0.184,-0.14C0.204,-0.115 0.232,-0.103 0.268,-0.103Z" style="fill:rgb(137,135,238);fill-rule:nonzero;"/>
            </g>
            <g id="F" transform="matrix(341.66,0,0,341.66,336.331,575.651)">
                <path d="M0.085,0C0.081,0 0.076,-0.004 0.076,-0.008L0.076,-0.696C0.076,-0.701 0.079,-0.705 0.085,-0.705L0.531,-0.705C0.534,-0.705 0.537,-0.702 0.537,-0.698C0.53,-0.663 0.529,-0.655 0.52,-0.61C0.519,-0.607 0.514,-0.602 0.51,-0.602L0.208,-0.602C0.205,-0.602 0.203,-0.601 0.203,-0.598L0.203,-0.415C0.203,-0.413 0.205,-0.41 0.208,-0.41L0.508,-0.41C0.512,-0.41 0.518,-0.405 0.518,-0.401L0.518,-0.317C0.518,-0.312 0.512,-0.307 0.508,-0.307L0.208,-0.307C0.205,-0.307 0.203,-0.304 0.203,-0.302L0.203,-0.008C0.203,-0.003 0.198,0 0.194,0L0.085,0Z" style="fill:rgb(137,135,238);fill-rule:nonzero;"/>
            </g>
        </g>
        <path d="M758.758,316.531C758.758,297.981 735.568,279.724 717.018,279.724L268.886,279.724C251.495,279.724 231.908,299.14 231.908,316.531L231.908,624.608C231.908,640.618 246.505,655.26 268.886,655.26L433.772,655.26C452.683,655.26 466.131,662.783 466.131,681.695L466.131,804.994C466.131,804.994 521.08,699.962 534.2,675.288C541.823,660.95 551.516,655.26 569.696,655.26L717.018,655.26C734.3,655.26 758.758,634.859 758.758,617.577L758.758,316.531Z" style="fill:none;stroke:rgb(17,0,37);stroke-width:22.87px;"/>
    </g>
</svg>
